<?xml version="1.0" encoding="UTF-8"?>
<!DOCTYPE svg PUBLIC "-//W3C//DTD SVG 1.1//EN" "http://www.w3.org/Graphics/SVG/1.1/DTD/svg11.dtd">
<!-- Creator: CorelDRAW 2019 (64-Bit) -->
<svg xmlns="http://www.w3.org/2000/svg" xml:space="preserve" width="1240px" height="1075px" version="1.1" style="shape-rendering:geometricPrecision; text-rendering:geometricPrecision; image-rendering:optimizeQuality; fill-rule:evenodd; clip-rule:evenodd"
viewBox="0 0 1240 1074.667"
 xmlns:xlink="http://www.w3.org/1999/xlink"
 xmlns:xodm="http://www.corel.com/coreldraw/odm/2003">
 <defs>
  <style type="text/css">
   <![CDATA[
    .fil1 {fill:#00A1DF}
    .fil0 {fill:#FF8300}
   ]]>
  </style>
 </defs>
 <g id="Capa_x0020_1">
  <metadata id="CorelCorpID_0Corel-Layer"/>
  <path class="fil0" d="M669.991 516.654c2.004,-3.685 5.199,-12.232 -0.225,-14.157 -6.69,-2.377 -11.174,-2.554 -18.199,-3.369 -7.243,0.091 -13.731,0.619 -18.934,4.051 -1.431,0.944 -2.951,1.969 -3.991,3.543 -9.512,14.393 -2.874,29.266 12.272,35.144 2.93,1.138 5.891,1.986 8.276,3.445 4.474,2.734 4.537,8.087 -1.643,10.061 -3.307,1.056 -8.639,1.544 -12.185,1.002 -3.798,-0.579 -6.347,-2.239 -10.426,-4.408 -1.077,-0.18 -2.706,-0.661 -3.514,0.471 -0.213,0.3 -5.016,9.513 -5.016,9.513 -0.068,1.614 0.081,3.211 1.8,4.07 8.665,4.333 20.431,5.763 30.767,4.831 11.3,-1.018 19.634,-4.338 22.861,-15.999 4.988,-18.03 -11.703,-24.261 -25.415,-30.501 -8.205,-4.897 -1.252,-13.309 10.241,-9.256 2.252,0.795 7.075,2.325 9.384,2.786 1.07,0.214 2.142,0.3 2.399,0.214 0.257,-0.086 1.548,-1.441 1.548,-1.441z"/>
  <path class="fil1" d="M1049.221 516.003c-0.871,-3.585 -1.743,-7.17 -2.614,-10.754 0.228,-0.701 0.457,-1.4 0.685,-2.101 0.8,-0.457 1.6,-0.914 2.4,-1.371 1.599,-0.457 3.199,-0.913 4.799,-1.37 14.559,-2.674 45.61,-6.559 46.096,15.503 0.304,13.699 -3.826,38.478 -4.904,48.73 -1.102,2.065 -0.857,1.819 -2.828,3.085 -1.471,0.228 -2.942,0.457 -4.413,0.685 -7.386,0.776 -14.088,1.152 -21.51,1.414 -3.549,0.001 -7.098,0.001 -10.647,0.001 -9.75,-2.236 -13.838,-4.388 -17.742,-11.439 -3.305,-5.969 -3.932,-14.379 -0.507,-20.483 3.227,-5.749 10.383,-9.218 17.11,-10.951 6.074,-1.564 20.873,-0.057 25.709,-2.407 0.358,-3.6 1.731,-7.079 -0.832,-9.567 -5.708,-5.537 -22.506,1.422 -29.463,2.198 -0.385,0.043 -1.339,-1.173 -1.339,-1.173zm30.129 23.723l0.196 -1.971c-5.1,-0.167 -10.08,-0.255 -15.184,-0.255 -9.993,1.763 -12.117,13.348 -2.485,17.762 5.967,0.342 9.675,-0.239 15.447,-0.45l2.026 -15.086z"/>
  <path class="fil1" d="M260.345 517.392c-0.871,-3.585 -1.742,-7.17 -2.614,-10.755 0.229,-0.7 0.457,-1.4 0.686,-2.1 0.8,-0.457 1.6,-0.914 2.399,-1.371 1.6,-0.457 3.199,-0.913 4.8,-1.37 14.558,-2.674 45.61,-6.559 46.096,15.503 0.303,13.699 -3.827,38.478 -4.904,48.73 -1.103,2.065 -0.858,1.819 -2.828,3.084 -1.472,0.229 -2.942,0.458 -4.414,0.686 -7.385,0.776 -14.087,1.153 -21.51,1.414 -3.549,0.001 -7.098,0.001 -10.647,0.001 -9.749,-2.236 -13.837,-4.388 -17.742,-11.439 -3.304,-5.969 -3.932,-14.379 -0.507,-20.483 3.228,-5.75 10.383,-9.219 17.11,-10.951 6.074,-1.564 20.874,-0.057 25.71,-2.407 0.357,-3.601 1.731,-7.079 -0.833,-9.567 -5.707,-5.537 -22.505,1.422 -29.462,2.197 -0.386,0.044 -1.34,-1.172 -1.34,-1.172zm30.13 23.723l0.196 -1.971c-5.1,-0.167 -10.081,-0.255 -15.185,-0.255 -9.993,1.763 -12.117,13.347 -2.484,17.762 5.967,0.342 9.675,-0.239 15.447,-0.45l2.026 -15.086z"/>
  <path class="fil1" d="M165.266 568.422c4.684,-31.25 9.369,-62.501 14.054,-93.751 12.047,-0.312 24.094,-0.623 36.14,-0.934 38.589,-0.995 41.31,42.768 8.08,59.035 -11.679,2.594 -20.518,3.229 -32.266,3.299 -2.27,11.77 -4.541,23.539 -6.812,35.309 -5.741,0 -11.483,0 -17.224,0 -0.658,-0.986 -1.315,-1.972 -1.972,-2.958zm27.079 -49.747c1.399,-9.269 2.799,-18.538 4.197,-27.808 8.759,-0.057 22.536,-1.356 27.293,4.883 4.532,5.946 -0.502,17.858 -6.967,20.862 -6.944,3.226 -16.917,2.112 -24.523,2.063z"/>
  <path class="fil1" d="M361.831 569.823c-2.827,0.4 -5.656,0.799 -8.484,1.199 -61.85,1.016 -30.204,-92.11 31.704,-66.69 1.158,0.429 2.314,0.857 3.471,1.285 0.18,1.314 0.36,2.628 0.539,3.942 -3.197,22.73 -4.521,69.317 -19.621,85.292 -1.942,1.057 -3.885,2.114 -5.828,3.171 -13.732,4.196 -21.342,3.973 -35.135,0.343 -1.971,-0.629 -3.942,-1.257 -5.913,-1.885 1.485,-4.771 2.971,-9.541 4.456,-14.312 14.264,6.148 31.207,5.003 34.811,-12.345zm5.64 -53.341c-0.429,0 -10.626,-0.043 -10.626,-0.043 -19.271,1.82 -22.259,38.093 -4.585,38.093 0.472,0 9.383,0.128 9.726,0 0.343,-0.129 2.743,-1.286 2.914,-1.543 0.172,-0.257 0.643,-4.156 0.643,-4.156 0.714,-5.699 1.428,-11.398 2.142,-17.097 0.415,-4.37 0.829,-8.741 1.244,-13.111 -0.028,-0.254 -0.057,-0.508 -0.085,-0.761 -0.147,-0.407 -0.292,-0.814 -0.438,-1.222 -0.311,-0.053 -0.623,-0.107 -0.935,-0.16z"/>
  <path class="fil1" d="M462.294 519.432c4.268,24.9 -8.388,51.198 -36.79,51.346 -22.406,0.117 -29.678,-11.823 -28.756,-33.504 0.766,-18.033 8.78,-31.5 28.083,-36.887 16.998,-4.74 32.756,0.614 37.463,19.045zm-45.742 14.298c0.698,-5.067 2.189,-9.758 5.287,-13.227 4.135,-4.633 10.042,-6.959 15.478,-3.098 7.667,5.446 6.53,18.455 2.722,26.841 -4.673,10.294 -16.064,14.282 -21.722,4.386 -2.911,-5.092 -2.539,-9.28 -1.765,-14.902z"/>
  <path class="fil0" d="M470.958 568.76c3.885,-28.736 7.769,-57.473 11.654,-86.21 2.63,-5.701 6.934,-6.245 12.052,-6.293 4.817,-0.046 7.631,-0.686 9.804,3.975 6.562,14.07 12.957,41.652 17.307,56.051 9.68,-17.696 19.361,-35.392 29.04,-53.089 2.96,-5.41 4.057,-5.369 10.038,-5.613 3.499,0.058 6.999,0.114 10.498,0.172 4.026,0.755 3.808,3.277 3.428,6.641 -3.77,27.494 -7.54,54.988 -11.31,82.482 -0.349,1.709 0.017,1.66 -1.456,2.485 -4.145,0.142 -8.013,0.028 -12.169,-0.086 -2.966,-0.191 -4.807,0.362 -4.214,-3.125 0.419,-2.457 0.839,-4.915 1.258,-7.372 2.071,-15.126 4.141,-30.251 6.212,-45.377 -8.456,13.926 -16.911,27.852 -25.367,41.778 -1.015,1.555 -1.258,2.571 -3.427,2.571 -0.386,0 -12.641,-0.043 -12.641,-0.043 -2.321,-1.616 -1.9,-1.103 -2.629,-3.847 -0.68,-2.56 -1.361,-5.119 -2.041,-7.68 -3.2,-10.526 -6.399,-21.052 -9.599,-31.579 -2.358,17.611 -4.716,35.221 -7.073,52.832 -0.286,0.714 -0.571,1.428 -0.857,2.142 -0.928,0.386 -1.857,0.771 -2.785,1.157 -4.242,0 -8.485,0 -12.727,0 -0.6,-0.107 -1.2,-0.214 -1.8,-0.321 -0.398,-0.551 -0.798,-1.1 -1.196,-1.651z"/>
  <ellipse class="fil0" cx="604.719" cy="482.467" rx="10.712" ry="9.855"/>
  <rect class="fil0" transform="matrix(0.989818 0.0382378 -0.115851 0.879151 592.348 502.002)" width="16.599" height="78.896" rx="2.858" ry="2.858"/>
  <path class="fil1" d="M757.054 485.695c-1.768,3.494 -3.316,7.03 -5.085,10.516 -1.721,2.18 -1.621,1.732 -4.37,1.585 -7.548,-2.963 -14.574,-3.923 -21.959,-2.11 -11.306,2.771 -17.142,13.032 -19.272,23.883 -1.787,9.099 -4.233,25.258 4.817,31.349 3.037,2.043 3.487,2.488 7.213,3.119 9.17,1.554 15.122,-0.259 24.283,-3.943 0.909,-0.365 3.987,-1.507 4.842,-0.557 1.751,1.946 4.603,9.602 5.141,12.47 -1.289,3.631 -4.705,4.1 -8.041,5.171 -22.41,7.198 -45.904,10.837 -57.694,-14.433 -6.837,-14.654 -4.161,-31.034 2.215,-47.407 9.047,-23.248 35.613,-35.404 59.086,-26.957 4.041,1.455 8.037,2.88 8.824,7.314z"/>
  <path class="fil1" d="M768.087 509.642c0.172,-1.799 0.343,-3.599 0.515,-5.399 0.657,-0.971 1.313,-1.942 1.971,-2.913 0,0 4.198,-0.086 5.227,-0.086 1.029,0 7.027,0.342 7.97,0.342 0.943,0 1.908,0.579 1.908,0.579 0,0 1.263,1.906 1.263,2.099 0,0.193 -0.257,4.435 -0.257,4.435 -1.336,9.067 -2.675,18.133 -4.011,27.199 -0.763,5.178 -2.14,20.729 6.088,20.729 4.504,0 9.015,0.623 13.797,0.514 0.091,-0.003 5.256,-34.107 7.884,-51.161 0.421,-1.858 0.494,-4.346 2.849,-4.735 0.129,-0.021 11.806,0.642 12.062,0.6 1.28,-0.214 2.464,1.749 3.003,3.123 0.685,1.743 -0.281,5.892 -0.56,7.846 -2.557,16.34 -5.112,32.68 -7.668,49.02 -2.443,8.446 -10.853,10.542 -18.939,10.542 -0.3,0 -2.849,0.087 -2.849,0.087 -13.875,0.47 -29.574,0.799 -34.479,-15.23 -0.229,-1.685 -0.459,-3.37 -0.688,-5.055 0.579,-15.081 3.39,-27.661 4.914,-42.536z"/>
  <path class="fil1" d="M856.575 541.895c4.228,1.057 4.208,0.814 8.57,0.814 10.343,0 22.699,-1.372 29.503,-10.03 7.412,-9.432 7.3,-17.478 -0.727,-26.778 -5.94,-6.883 -18.535,-8.156 -27.767,-6.129 -12.69,2.785 -22.158,13.681 -25.928,25.606 -5.871,18.567 -4.299,42.121 18.662,45.315 9.988,1.39 16.481,0.722 26.814,-2.642 6.303,-2.051 5.599,-3.689 3.513,-9.166 -1.736,-4.557 -3.045,-7.501 -9.677,-6.473 -6.814,1.057 -13.288,3.792 -20.004,1.021 -4.043,-1.667 -3.596,-3.027 -3.315,-6.788 0.119,-1.583 0.238,-3.167 0.356,-4.75zm1.078 -13.94c3.081,-6.256 5.361,-12.597 13.969,-12.597 2.577,0 4.649,0.215 6.167,1.021 3.64,1.935 4.153,6.562 1.107,9.53 -4.031,3.928 -14.454,3.83 -20.214,3.674 -1.491,-0.04 -1.374,-0.784 -1.029,-1.628z"/>
  <path class="fil1" d="M903.514 564.537c2.457,-17.368 4.893,-34.597 7.35,-51.965 0.615,-2.157 1.228,-4.313 1.842,-6.47 0.6,-1.128 1.2,-2.256 1.8,-3.385 0,0 4.113,-2.699 4.413,-2.742 24.259,-3.478 51.501,-5.356 52.149,23.91 -1.548,12.797 -3.091,25.516 -4.864,38.265 -0.664,4.783 0.173,6.043 -4.645,7.115 -4.085,-0.115 -8.17,-0.229 -12.255,-0.344 -3.057,-1.185 -2.514,-3.436 -2.156,-6.072 0.397,-2.91 0.794,-5.821 1.191,-8.731 1.057,-6.184 2.114,-12.368 3.171,-18.553 0.911,-7.108 3.264,-14.769 -4.145,-18.696 -4.212,-2.231 -8.59,-2.022 -14.259,-2.022 -0.514,0 -3.171,-0.086 -3.171,-0.086 -2.158,16.211 -4.314,32.423 -6.472,48.634 -0.157,1.042 -0.314,2.085 -0.471,3.127 -0.4,1.043 -0.799,2.085 -1.199,3.128 -0.657,0.285 -1.314,0.572 -1.971,0.857 -1.357,-0.043 -2.714,-0.085 -4.071,-0.128 -3.071,0.136 -6.144,0.272 -9.216,0.408 0,0 -1.37,-0.857 -1.542,-1.029 -0.171,-0.171 -1.028,-1.756 -1.071,-1.97 -0.043,-0.215 -0.408,-3.251 -0.408,-3.251z"/>
  <path class="fil1" d="M993.536 513.671c-0.771,0 -10.026,-1.028 -10.026,-1.028 0.1,-2.956 0.2,-5.913 0.3,-8.87 0,0 2.785,-2.7 3.213,-2.743 0.429,-0.042 7.756,-1.199 7.756,-1.199 0.6,-1.058 1.2,-2.114 1.8,-3.171 0.657,-3.057 1.314,-6.112 1.971,-9.169 0.242,-0.686 0.486,-1.371 0.728,-2.057 0,0 2.571,-0.771 3.042,-1.028 0.472,-0.257 11.355,-5.013 11.355,-5.013 0.272,0.314 0.543,0.628 0.814,0.942 -0.557,6.313 -1.114,12.626 -1.671,18.939 4.019,0.225 8.037,0.451 12.055,0.675 5.402,0.301 4.393,2.269 4.444,7.339 -0.041,0.768 -0.077,1.504 -0.111,2.21 -0.227,4.886 -2.359,4.899 -6.926,4.912 -3.367,0.011 -6.735,0.022 -10.103,0.033 -1.472,10.347 -3.914,22.733 -4.695,33.357 -0.653,8.89 5.609,7.208 12.041,6.838 2.531,0.051 4.633,-0.49 4.944,2.443 0.13,1.222 0.26,2.444 0.391,3.665 0.096,0.818 0.193,1.635 0.29,2.451 0.908,7.694 -12.315,6.992 -17.471,7.406 -25.169,-2.554 -21.109,-12.8 -17.92,-34.833 1.26,-7.366 2.519,-14.733 3.779,-22.099z"/>
  <path class="fil1" d="M1108.503 553.446c0.443,-0.429 0.886,-0.858 1.328,-1.286 0.486,-0.179 0.972,-0.357 1.457,-0.536 0,0 2.85,0.728 3.021,0.814 5.988,3.013 11.599,4.052 17.853,3.984 8.824,-0.095 13.772,-7.779 5.586,-13.528 -2.284,-0.942 -4.57,-1.884 -6.854,-2.827 -18.349,-9.117 -25.697,-30.458 -6.939,-39.011 6.2,-2.828 13.501,-4.177 20.138,-3.423 6.496,0.737 18.47,2.512 17.35,8.111 -1.232,4.122 -2.442,12.214 -7.841,10.113 -1.343,-0.657 -2.685,-1.314 -4.028,-1.971 -4.591,-1.432 -5.672,-1.301 -10.541,-1.543 -8.447,2.246 -10.679,8.221 -2.356,12.383 8.748,3.83 17.498,7.04 21.514,16.148 6.579,14.926 -3.261,28.896 -20.833,30.895 -9.66,1.1 -17.892,0.051 -26.859,-4.065 -10.045,-4.266 -6.27,-6.362 -1.996,-14.258z"/>
  <path class="fil1" d="M120.324 486.384c0,-10.752 7.219,-12.999 15.47,-13.349 5.097,-0.217 12.306,-0.489 17.79,0.067 5.046,0.512 8.635,1.59 7.782,7.122 -0.197,1.281 -0.396,2.564 -0.594,3.845 -1.657,5.425 -4.129,7.048 -9.855,7.456 -8.427,0.029 -16.854,0.057 -25.281,0.086 -4.538,0 -5.312,-0.143 -5.312,-5.227z"/>
  <path class="fil1" d="M97.25 529.383c-0.015,-0.857 -0.029,-1.714 -0.043,-2.571 0.15,-1.399 0.302,-2.798 0.452,-4.196 0.696,-6.447 5.118,-8.889 10.946,-10.115 14.682,-0.015 29.364,-0.028 44.047,-0.043 5.064,1.549 3.462,10.409 2.059,12.513 -2.133,3.198 -5.034,5.322 -8.87,5.698 -14.645,0.083 -29.29,0.166 -43.934,0.249 -1.077,0.006 -4.745,0.009 -4.657,-1.535z"/>
  <path class="fil1" d="M108.778 562.951c1.435,-6.293 3.371,-10.053 10.584,-12.355 8.631,0.056 17.261,0.112 25.891,0.168 5.093,0.033 7.225,-0.405 6.733,5.658 -1.477,18.151 -22.743,12.92 -37.696,12.92 -5.326,0 -6.706,-1.149 -5.512,-6.391z"/>
 </g>
</svg>
